<!DOCTYPE svg PUBLIC "-//W3C//DTD SVG 1.1//EN" "http://www.w3.org/Graphics/SVG/1.1/DTD/svg11.dtd">
<!-- Uploaded to: SVG Repo, www.svgrepo.com, Transformed by: SVG Repo Mixer Tools -->
<svg version="1.1" id="Layer_1" xmlns="http://www.w3.org/2000/svg" xmlns:xlink="http://www.w3.org/1999/xlink" viewBox="0 0 512.001 512.001" xml:space="preserve" width="800px" height="800px" fill="#000000">
<g id="SVGRepo_bgCarrier" stroke-width="0"/>
<g id="SVGRepo_tracerCarrier" stroke-linecap="round" stroke-linejoin="round"/>
<g id="SVGRepo_iconCarrier"> <g> <defs> <filter id="Adobe_OpacityMaskFilter" filterUnits="userSpaceOnUse" x="115.3" y="0" width="281.401" height="512.001"> <feColorMatrix type="matrix" values="1 0 0 0 0 0 1 0 0 0 0 0 1 0 0 0 0 0 1 0"/> </filter> </defs> <mask maskUnits="userSpaceOnUse" x="115.3" y="0" width="281.401" height="512.001" id="mask-2_1_"> <g style="filter:url(#Adobe_OpacityMaskFilter);"> <polygon id="path-1_1_" style="fill:#FFFFFF;" points="115.3,511.998 396.701,511.998 396.701,-0.001 115.3,-0.001 "/> </g> </mask> <path style="mask:url(#mask-2_1_);fill:#303F9F;" d="M388.955,7.743L388.955,7.743C378.609-2.603,361.819-2.577,351.5,7.796 L152.685,210.018c-6.983,7.027-10.902,16.534-10.902,26.439l0,0c0,20.71,16.79,37.199,37.5,37.199H313.85L177.72,412.126 l-37.455-37.455L115.3,512.001l137.322-24.973l-37.447-37.447l162.613-164.652c7.018-7.027,10.964-16.552,10.964-26.483l0,0 c0-20.683-16.764-37.756-37.447-37.756H215.387L388.955,45.137C399.283,34.808,399.283,18.071,388.955,7.743"/> </g> </g>
</svg>