<svg xmlns="http://www.w3.org/2000/svg" xmlns:xlink="http://www.w3.org/1999/xlink" version="1.1" width="256" height="256" viewBox="0 0 256 256" xml:space="preserve">

<defs>
</defs>
<g style="stroke: none; stroke-width: 0; stroke-dasharray: none; stroke-linecap: butt; stroke-linejoin: miter; stroke-miterlimit: 10; fill: none; fill-rule: nonzero; opacity: 1;" transform="translate(1.4065934065934016 1.4065934065934016) scale(2.81 2.81)" >
	<path d="M 29.363 58.225 c -0.259 0 -0.517 -0.099 -0.715 -0.296 c -0.395 -0.395 -0.395 -1.035 0 -1.43 l 34.904 -34.903 c 0.395 -0.395 1.035 -0.395 1.43 0 c 0.395 0.395 0.395 1.035 0 1.43 L 30.078 57.929 C 29.88 58.126 29.622 58.225 29.363 58.225 z" style="stroke: none; stroke-width: 1; stroke-dasharray: none; stroke-linecap: butt; stroke-linejoin: miter; stroke-miterlimit: 10; fill: rgb(214,214,214); fill-rule: nonzero; opacity: 1;" transform=" matrix(1 0 0 1 0 0) " stroke-linecap="round" />
	<path d="M 44.214 58.867 c -0.259 0 -0.517 -0.099 -0.715 -0.296 c -0.395 -0.395 -0.395 -1.035 0 -1.43 l 14.223 -14.223 c 0.395 -0.395 1.035 -0.395 1.43 0 c 0.395 0.395 0.395 1.035 0 1.43 L 44.929 58.571 C 44.731 58.768 44.473 58.867 44.214 58.867 z" style="stroke: none; stroke-width: 1; stroke-dasharray: none; stroke-linecap: butt; stroke-linejoin: miter; stroke-miterlimit: 10; fill: rgb(214,214,214); fill-rule: nonzero; opacity: 1;" transform=" matrix(1 0 0 1 0 0) " stroke-linecap="round" />
	<path d="M 25.275 46.82 c -0.259 0 -0.517 -0.099 -0.715 -0.296 c -0.395 -0.395 -0.395 -1.035 0 -1.43 l 27.063 -27.063 c 0.395 -0.395 1.035 -0.395 1.43 0 c 0.395 0.395 0.395 1.035 0 1.43 L 25.99 46.524 C 25.793 46.721 25.534 46.82 25.275 46.82 z" style="stroke: none; stroke-width: 1; stroke-dasharray: none; stroke-linecap: butt; stroke-linejoin: miter; stroke-miterlimit: 10; fill: rgb(214,214,214); fill-rule: nonzero; opacity: 1;" transform=" matrix(1 0 0 1 0 0) " stroke-linecap="round" />
	<path d="M 77.278 33.798 c -0.259 0 -0.517 -0.099 -0.715 -0.296 c -0.395 -0.395 -0.395 -1.035 0 -1.43 L 88.274 20.36 c 0.395 -0.395 1.035 -0.395 1.43 0 c 0.395 0.395 0.395 1.035 0 1.43 L 77.993 33.502 C 77.795 33.699 77.536 33.798 77.278 33.798 z" style="stroke: none; stroke-width: 1; stroke-dasharray: none; stroke-linecap: butt; stroke-linejoin: miter; stroke-miterlimit: 10; fill: rgb(214,214,214); fill-rule: nonzero; opacity: 1;" transform=" matrix(1 0 0 1 0 0) " stroke-linecap="round" />
	<path d="M 74.845 27.961 c -0.259 0 -0.517 -0.099 -0.715 -0.296 c -0.395 -0.395 -0.395 -1.035 0 -1.43 l 14.143 -14.143 c 0.395 -0.395 1.035 -0.395 1.43 0 c 0.395 0.395 0.395 1.035 0 1.43 L 75.56 27.664 C 75.363 27.862 75.104 27.961 74.845 27.961 z" style="stroke: none; stroke-width: 1; stroke-dasharray: none; stroke-linecap: butt; stroke-linejoin: miter; stroke-miterlimit: 10; fill: rgb(214,214,214); fill-rule: nonzero; opacity: 1;" transform=" matrix(1 0 0 1 0 0) " stroke-linecap="round" />
	<path d="M 21.258 25.426 c -0.259 0 -0.517 -0.099 -0.715 -0.296 c -0.395 -0.395 -0.395 -1.035 0 -1.43 L 40.524 3.719 c 0.395 -0.395 1.035 -0.395 1.43 0 c 0.395 0.395 0.395 1.035 0 1.43 L 21.973 25.13 C 21.775 25.327 21.516 25.426 21.258 25.426 z" style="stroke: none; stroke-width: 1; stroke-dasharray: none; stroke-linecap: butt; stroke-linejoin: miter; stroke-miterlimit: 10; fill: rgb(214,214,214); fill-rule: nonzero; opacity: 1;" transform=" matrix(1 0 0 1 0 0) " stroke-linecap="round" />
	<path d="M 30.941 25.426 c -0.259 0 -0.517 -0.099 -0.715 -0.296 c -0.395 -0.395 -0.395 -1.035 0 -1.43 l 13.138 -13.139 c 0.395 -0.395 1.035 -0.395 1.43 0 c 0.395 0.395 0.395 1.035 0 1.43 L 31.656 25.13 C 31.458 25.327 31.2 25.426 30.941 25.426 z" style="stroke: none; stroke-width: 1; stroke-dasharray: none; stroke-linecap: butt; stroke-linejoin: miter; stroke-miterlimit: 10; fill: rgb(214,214,214); fill-rule: nonzero; opacity: 1;" transform=" matrix(1 0 0 1 0 0) " stroke-linecap="round" />
	<path d="M 19.614 17.387 c -0.259 0 -0.517 -0.099 -0.715 -0.296 c -0.395 -0.395 -0.395 -1.035 0 -1.43 L 30.841 3.719 c 0.395 -0.395 1.035 -0.395 1.43 0 c 0.395 0.395 0.395 1.035 0 1.43 L 20.329 17.09 C 20.132 17.288 19.873 17.387 19.614 17.387 z" style="stroke: none; stroke-width: 1; stroke-dasharray: none; stroke-linecap: butt; stroke-linejoin: miter; stroke-miterlimit: 10; fill: rgb(214,214,214); fill-rule: nonzero; opacity: 1;" transform=" matrix(1 0 0 1 0 0) " stroke-linecap="round" />
	<path d="M 18.055 81.645 c 1.148 0 2.295 0.274 3.34 0.823 l 7.817 4.11 l -1.493 -8.697 c -0.402 -2.333 0.371 -4.715 2.072 -6.37 l 6.317 -6.157 l -8.733 -1.268 c -2.342 -0.341 -4.367 -1.811 -5.416 -3.934 l -3.906 -7.912 l -3.904 7.911 c -1.049 2.123 -3.074 3.595 -5.416 3.936 L 0 65.354 l 6.319 6.16 c 1.695 1.649 2.47 4.03 2.07 6.364 l -1.493 8.699 l 7.81 -4.108 C 15.754 81.921 16.905 81.645 18.055 81.645 z" style="stroke: none; stroke-width: 1; stroke-dasharray: none; stroke-linecap: butt; stroke-linejoin: miter; stroke-miterlimit: 10; fill: rgb(48,63,159); fill-rule: nonzero; opacity: 1;" transform=" matrix(1 0 0 1 0 0) " stroke-linecap="round" />
	<path d="M 70.69 46.378 c 0.613 0 1.225 0.146 1.783 0.439 l 4.172 2.193 l -0.797 -4.642 c -0.214 -1.245 0.198 -2.517 1.106 -3.4 l 3.372 -3.286 l -4.661 -0.677 c -1.25 -0.182 -2.331 -0.967 -2.891 -2.1 l -2.085 -4.223 l -2.084 4.222 c -0.56 1.133 -1.641 1.919 -2.891 2.101 l -4.661 0.677 l 3.373 3.288 c 0.905 0.88 1.318 2.151 1.105 3.397 l -0.797 4.643 l 4.168 -2.192 C 69.462 46.526 70.076 46.378 70.69 46.378 z" style="stroke: none; stroke-width: 1; stroke-dasharray: none; stroke-linecap: butt; stroke-linejoin: miter; stroke-miterlimit: 10; fill: rgb(48,63,159); fill-rule: nonzero; opacity: 1;" transform=" matrix(1 0 0 1 0 0) " stroke-linecap="round" />
	<path d="M 14.67 38.007 c 0.613 0 1.225 0.146 1.783 0.439 l 4.172 2.193 l -0.797 -4.642 c -0.214 -1.245 0.198 -2.517 1.106 -3.4 l 3.372 -3.286 l -4.661 -0.677 c -1.25 -0.182 -2.331 -0.967 -2.891 -2.1 l -2.085 -4.223 l -2.084 4.222 c -0.56 1.133 -1.641 1.919 -2.891 2.101 l -4.661 0.677 l 3.373 3.288 c 0.905 0.88 1.318 2.151 1.105 3.397 l -0.797 4.643 l 4.168 -2.192 C 13.442 38.154 14.056 38.007 14.67 38.007 z" style="stroke: none; stroke-width: 1; stroke-dasharray: none; stroke-linecap: butt; stroke-linejoin: miter; stroke-miterlimit: 10; fill: rgb(48,63,159); fill-rule: nonzero; opacity: 1;" transform=" matrix(1 0 0 1 0 0) " stroke-linecap="round" />
	<path d="M 48.067 78.307 c 0.347 0 0.694 0.083 1.01 0.249 l 2.365 1.243 l -0.452 -2.631 c -0.122 -0.706 0.112 -1.426 0.627 -1.927 l 1.911 -1.862 l -2.642 -0.384 c -0.709 -0.103 -1.321 -0.548 -1.638 -1.19 l -1.181 -2.394 l -1.181 2.393 c -0.317 0.642 -0.93 1.088 -1.638 1.191 l -2.642 0.384 l 1.911 1.864 c 0.513 0.499 0.747 1.219 0.626 1.925 l -0.452 2.631 l 2.362 -1.243 C 47.371 78.391 47.719 78.307 48.067 78.307 z" style="stroke: none; stroke-width: 1; stroke-dasharray: none; stroke-linecap: butt; stroke-linejoin: miter; stroke-miterlimit: 10; fill: rgb(48,63,159); fill-rule: nonzero; opacity: 1;" transform=" matrix(1 0 0 1 0 0) " stroke-linecap="round" />
	<path d="M 54.478 70.959 c -0.259 0 -0.517 -0.099 -0.715 -0.296 c -0.395 -0.395 -0.395 -1.035 0 -1.43 l 15.898 -15.898 c 0.395 -0.395 1.035 -0.395 1.43 0 c 0.395 0.395 0.395 1.035 0 1.43 L 55.193 70.663 C 54.996 70.861 54.737 70.959 54.478 70.959 z" style="stroke: none; stroke-width: 1; stroke-dasharray: none; stroke-linecap: butt; stroke-linejoin: miter; stroke-miterlimit: 10; fill: rgb(214,214,214); fill-rule: nonzero; opacity: 1;" transform=" matrix(1 0 0 1 0 0) " stroke-linecap="round" />
	<path d="M 51.263 66.541 c -0.259 0 -0.517 -0.099 -0.715 -0.296 c -0.395 -0.395 -0.395 -1.035 0 -1.43 l 8.186 -8.187 c 0.395 -0.395 1.035 -0.395 1.43 0 c 0.395 0.395 0.395 1.035 0 1.43 l -8.186 8.187 C 51.78 66.442 51.522 66.541 51.263 66.541 z" style="stroke: none; stroke-width: 1; stroke-dasharray: none; stroke-linecap: butt; stroke-linejoin: miter; stroke-miterlimit: 10; fill: rgb(214,214,214); fill-rule: nonzero; opacity: 1;" transform=" matrix(1 0 0 1 0 0) " stroke-linecap="round" />
	<path d="M 65.663 15.374 c -0.559 0 -1.011 -0.453 -1.011 -1.011 V 8.98 c 0 -0.558 0.452 -1.011 1.011 -1.011 s 1.011 0.453 1.011 1.011 v 5.383 C 66.674 14.921 66.222 15.374 65.663 15.374 z" style="stroke: none; stroke-width: 1; stroke-dasharray: none; stroke-linecap: butt; stroke-linejoin: miter; stroke-miterlimit: 10; fill: rgb(48,63,159); fill-rule: nonzero; opacity: 1;" transform=" matrix(1 0 0 1 0 0) " stroke-linecap="round" />
	<path d="M 68.354 12.683 h -5.382 c -0.559 0 -1.011 -0.453 -1.011 -1.011 c 0 -0.558 0.452 -1.011 1.011 -1.011 h 5.382 c 0.559 0 1.011 0.453 1.011 1.011 C 69.365 12.23 68.913 12.683 68.354 12.683 z" style="stroke: none; stroke-width: 1; stroke-dasharray: none; stroke-linecap: butt; stroke-linejoin: miter; stroke-miterlimit: 10; fill: rgb(48,63,159); fill-rule: nonzero; opacity: 1;" transform=" matrix(1 0 0 1 0 0) " stroke-linecap="round" />
	<path d="M 72.442 78.314 c -0.559 0 -1.011 -0.452 -1.011 -1.011 V 71.92 c 0 -0.559 0.452 -1.011 1.011 -1.011 s 1.011 0.452 1.011 1.011 v 5.382 C 73.453 77.861 73.001 78.314 72.442 78.314 z" style="stroke: none; stroke-width: 1; stroke-dasharray: none; stroke-linecap: butt; stroke-linejoin: miter; stroke-miterlimit: 10; fill: rgb(48,63,159); fill-rule: nonzero; opacity: 1;" transform=" matrix(1 0 0 1 0 0) " stroke-linecap="round" />
	<path d="M 75.133 75.622 h -5.382 c -0.559 0 -1.011 -0.452 -1.011 -1.011 s 0.452 -1.011 1.011 -1.011 h 5.382 c 0.559 0 1.011 0.452 1.011 1.011 S 75.692 75.622 75.133 75.622 z" style="stroke: none; stroke-width: 1; stroke-dasharray: none; stroke-linecap: butt; stroke-linejoin: miter; stroke-miterlimit: 10; fill: rgb(48,63,159); fill-rule: nonzero; opacity: 1;" transform=" matrix(1 0 0 1 0 0) " stroke-linecap="round" />
	<path d="M 7.565 55.075 c -0.558 0 -1.011 -0.452 -1.011 -1.011 v -5.383 c 0 -0.559 0.453 -1.011 1.011 -1.011 s 1.011 0.452 1.011 1.011 v 5.383 C 8.576 54.623 8.123 55.075 7.565 55.075 z" style="stroke: none; stroke-width: 1; stroke-dasharray: none; stroke-linecap: butt; stroke-linejoin: miter; stroke-miterlimit: 10; fill: rgb(48,63,159); fill-rule: nonzero; opacity: 1;" transform=" matrix(1 0 0 1 0 0) " stroke-linecap="round" />
	<path d="M 10.256 52.383 H 4.874 c -0.558 0 -1.011 -0.452 -1.011 -1.011 s 0.453 -1.011 1.011 -1.011 h 5.382 c 0.558 0 1.011 0.452 1.011 1.011 S 10.814 52.383 10.256 52.383 z" style="stroke: none; stroke-width: 1; stroke-dasharray: none; stroke-linecap: butt; stroke-linejoin: miter; stroke-miterlimit: 10; fill: rgb(48,63,159); fill-rule: nonzero; opacity: 1;" transform=" matrix(1 0 0 1 0 0) " stroke-linecap="round" />
	<path d="M 9.502 15.374 c -0.558 0 -1.011 -0.453 -1.011 -1.011 V 8.98 c 0 -0.558 0.453 -1.011 1.011 -1.011 c 0.558 0 1.011 0.453 1.011 1.011 v 5.383 C 10.513 14.921 10.06 15.374 9.502 15.374 z" style="stroke: none; stroke-width: 1; stroke-dasharray: none; stroke-linecap: butt; stroke-linejoin: miter; stroke-miterlimit: 10; fill: rgb(48,63,159); fill-rule: nonzero; opacity: 1;" transform=" matrix(1 0 0 1 0 0) " stroke-linecap="round" />
	<path d="M 12.193 12.683 H 6.811 c -0.558 0 -1.011 -0.453 -1.011 -1.011 c 0 -0.558 0.453 -1.011 1.011 -1.011 h 5.382 c 0.558 0 1.011 0.453 1.011 1.011 C 13.204 12.23 12.751 12.683 12.193 12.683 z" style="stroke: none; stroke-width: 1; stroke-dasharray: none; stroke-linecap: butt; stroke-linejoin: miter; stroke-miterlimit: 10; fill: rgb(48,63,159); fill-rule: nonzero; opacity: 1;" transform=" matrix(1 0 0 1 0 0) " stroke-linecap="round" />
</g>
</svg>